<svg xmlns="http://www.w3.org/2000/svg" version="1.1" xmlns:xlink="http://www.w3.org/1999/xlink" xmlns:svgjs="http://svgjs.dev/svgjs" width="1000" height="1000" viewBox="0 0 1000 1000"><rect width="1000" height="1000" fill="#ffffff"></rect><g transform="matrix(0.7,0,0,0.7,149.57577261613955,448.83878694496616)"><svg viewBox="0 0 396 58" data-background-color="#ffffff" preserveAspectRatio="xMidYMid meet" height="146" width="1000" xmlns="http://www.w3.org/2000/svg" xmlns:xlink="http://www.w3.org/1999/xlink"><defs></defs><g id="tight-bounds" transform="matrix(1,0,0,1,0.23999149144106013,0.034740546923103466)"><svg viewBox="0 0 395.52 57.93051766639277" height="57.93051766639277" width="395.52"><g><svg viewBox="0 0 395.52 57.93051766639277" height="57.93051766639277" width="395.52"><g><svg viewBox="0 0 395.52 57.93051766639277" height="57.93051766639277" width="395.52"><g><svg viewBox="0 0 395.52 57.93051766639277" height="57.93051766639277" width="395.52"><g><svg viewBox="0 0 395.52 57.93051766639277" height="57.93051766639277" width="395.52"><g transform="matrix(1,0,0,1,0,0)"><svg width="395.52" viewBox="3.0999999046325684 -35.04999923706055 243.37998962402344 35.64999771118164" height="57.93051766639277" data-palette-color="#8bc53f"><g class="undefined-text-0" data-fill-palette-color="primary" id="text-0"><path d="M32.95-34.45L35.8 0 31.2 0 30-15.55Q29.25-24.7 29.15-29.6L29.15-29.6 21.7-3.9 17.25-3.9 9.4-29.65Q9.4-23.4 8.75-15.2L8.75-15.2 7.6 0 3.1 0 5.95-34.45 12.35-34.45 19.6-9.4 26.5-34.45 32.95-34.45ZM43.9-34.45L48.65-34.45 48.65 0 43.9 0 43.9-34.45ZM82.8-34.45L82.8 0 76.45 0 62.45-29.25Q62.75-25.8 62.92-22.88 63.1-19.95 63.1-15.8L63.1-15.8 63.1 0 58.65 0 58.65-34.45 64.85-34.45 79-5.15Q78.85-6.45 78.6-9.7 78.35-12.95 78.35-15.65L78.35-15.65 78.35-34.45 82.8-34.45ZM88.54-34.45L113.14-34.45 112.64-30.4 103.09-30.4 103.09 0 98.34 0 98.34-30.4 88.54-30.4 88.54-34.45ZM127.14-35.05Q130.59-35.05 133.04-34.08 135.49-33.1 137.79-31.05L137.79-31.05 135.19-28.15Q133.24-29.7 131.37-30.43 129.49-31.15 127.34-31.15L127.34-31.15Q124.64-31.15 122.89-29.9 121.14-28.65 121.14-26.25L121.14-26.25Q121.14-24.75 121.74-23.73 122.34-22.7 123.97-21.85 125.59-21 128.69-20.05L128.69-20.05Q131.94-19.05 134.09-17.9 136.24-16.75 137.57-14.73 138.89-12.7 138.89-9.6L138.89-9.6Q138.89-6.6 137.42-4.3 135.94-2 133.17-0.7 130.39 0.6 126.59 0.6L126.59 0.6Q119.44 0.6 114.89-3.85L114.89-3.85 117.49-6.75Q119.59-5.05 121.74-4.17 123.89-3.3 126.54-3.3L126.54-3.3Q129.74-3.3 131.84-4.88 133.94-6.45 133.94-9.45L133.94-9.45Q133.94-11.15 133.29-12.28 132.64-13.4 131.07-14.3 129.49-15.2 126.49-16.1L126.49-16.1Q121.19-17.7 118.74-19.95 116.29-22.2 116.29-26.05L116.29-26.05Q116.29-28.65 117.67-30.7 119.04-32.75 121.52-33.9 123.99-35.05 127.14-35.05L127.14-35.05ZM157.94-35.05Q161.04-35.05 163.16-34.25 165.29-33.45 167.49-31.65L167.49-31.65 164.89-28.6Q161.74-31.15 158.24-31.15L158.24-31.15Q153.94-31.15 151.31-27.85 148.69-24.55 148.69-17.25L148.69-17.25Q148.69-10.15 151.29-6.78 153.89-3.4 158.19-3.4L158.19-3.4Q160.39-3.4 162.04-4.15 163.69-4.9 165.54-6.25L165.54-6.25 167.89-3.25Q166.29-1.6 163.79-0.5 161.29 0.6 158.04 0.6L158.04 0.6Q153.84 0.6 150.56-1.48 147.29-3.55 145.46-7.58 143.64-11.6 143.64-17.25L143.64-17.25Q143.64-22.9 145.54-26.93 147.44-30.95 150.69-33 153.94-35.05 157.94-35.05L157.94-35.05ZM197.24 0L192.24 0 189.64-8.65 176.59-8.65 173.99 0 169.19 0 180.24-34.45 186.24-34.45 197.24 0ZM183.14-30.5L177.74-12.5 188.49-12.5 183.14-30.5ZM202.53-34.45L207.28-34.45 207.28-4.15 221.43-4.15 220.88 0 202.53 0 202.53-34.45ZM227.43-34.45L246.08-34.45 245.53-30.65 232.18-30.65 232.18-19.4 243.78-19.4 243.78-15.6 232.18-15.6 232.18-3.8 246.48-3.8 246.48 0 227.43 0 227.43-34.45Z" fill="#8bc53f" data-fill-palette-color="primary"></path></g></svg></g></svg></g></svg></g></svg></g></svg></g></svg><rect width="395.52" height="57.93051766639277" fill="none" stroke="none" visibility="hidden"></rect></g></svg></g></svg>